<svg xmlns="http://www.w3.org/2000/svg" width="200" height="200" viewBox="0 0 200 200" version="1.1">
	<path d="M 104.560 17.534 C 104.195 19.478, 103.989 23.924, 104.102 27.414 C 104.268 32.543, 103.890 34.346, 102.130 36.817 C 98.152 42.404, 88.309 50.450, 80.103 54.822 C 74.454 57.833, 72 59.699, 72 60.985 C 72 64.199, 80.677 70.820, 87.752 73.005 C 91.304 74.102, 95.476 75, 97.024 75 C 101.202 75, 103 75.974, 103 78.239 C 103 82.865, 98.061 87.977, 82 99.974 C 74.717 105.415, 65.990 114.217, 63.922 118.210 C 62.783 120.409, 62 123.941, 62 126.883 C 62 135.690, 68.593 139.983, 82.138 139.994 C 95.004 140.005, 119.486 130.829, 122.586 124.833 C 123.503 123.060, 124.310 117.577, 124.686 110.568 C 126.024 85.597, 120.725 76.601, 101.918 71.920 C 92.324 69.532, 86 67.137, 86 65.891 C 86 64.415, 104.148 64.889, 110.540 66.532 C 113.818 67.375, 118.617 69.369, 121.205 70.963 C 125.489 73.602, 125.960 73.701, 126.477 72.071 C 126.790 71.087, 126.762 69.543, 126.416 68.641 C 125.352 65.869, 127.632 66.816, 130.853 70.486 C 134.273 74.381, 137 82.308, 137 88.356 L 137 92.349 139.324 90.165 C 140.602 88.964, 141.952 88.286, 142.324 88.658 C 143.316 89.650, 143.103 104.852, 142.031 109.472 C 141.525 111.656, 141.252 113.585, 141.425 113.758 C 141.598 113.931, 143.559 110.569, 145.783 106.286 C 158.654 81.505, 154.292 58.658, 132.481 36.607 C 121.156 25.158, 108.428 14, 106.694 14 C 105.801 14, 104.962 15.390, 104.560 17.534 M 98.511 52.368 C 96.705 53.689, 96.717 53.778, 98.858 54.924 C 101.415 56.293, 105 55.485, 105 53.540 C 105 52.338, 102.950 51, 101.109 51 C 100.709 51, 99.540 51.616, 98.511 52.368 M 156.116 121.483 C 149.753 122.924, 144.692 125.264, 118.900 138.686 C 108.997 143.839, 102.847 146.339, 96.276 147.881 C 78.998 151.938, 69.318 150.258, 60.944 141.751 L 56 136.729 56 140.704 C 56 145.931, 59.308 158.716, 62.071 164.169 C 69.322 178.478, 81.901 186.058, 98.523 186.135 C 108.534 186.182, 115.429 184.419, 134.876 176.843 C 160.147 166.999, 171.887 164.946, 180.500 168.863 C 185.926 171.332, 187.396 173.397, 187.613 178.861 C 187.861 185.092, 189.662 184.868, 193.704 178.104 C 200.264 167.126, 201.712 150.113, 197.012 139.230 C 194.155 132.612, 185.886 124.838, 179.286 122.562 C 172.479 120.216, 163.545 119.800, 156.116 121.483 M 151.972 140.820 C 145.277 143.032, 135.589 148.104, 131.500 151.538 L 128.500 154.058 132.500 152.437 C 134.700 151.545, 139.807 149.474, 143.848 147.835 C 157.540 142.282, 168.293 140.892, 178.031 143.418 C 181.037 144.198, 183.654 144.679, 183.846 144.488 C 184.037 144.296, 182.238 143.125, 179.847 141.885 C 173.814 138.755, 159.840 138.222, 151.972 140.820 M 1.762 199.707 C 3.006 199.946, 4.806 199.937, 5.762 199.687 C 6.718 199.437, 5.700 199.241, 3.500 199.252 C 1.300 199.263, 0.518 199.468, 1.762 199.707 M 12.750 199.737 C 15.638 199.939, 20.363 199.939, 23.250 199.737 C 26.138 199.535, 23.775 199.370, 18 199.370 C 12.225 199.370, 9.863 199.535, 12.750 199.737 " stroke="none" fill="black" fill-rule="evenodd"/>
</svg>